# xmcd
#
# Track frame offsets:
#	150
#	18087
#	34557
#	51662
#	67464
#	89622
#	105147
#	123527
#	141252
#	159160
#	177690
#	193353
#	210241
#	227063
#	242905
#	261697
#	275159
#	291155
#	307887
#
# Disc length: 4354 seconds
#
# Revision: 0
# Processed by: cddbd v1.5.2PL0 Copyright (c) Steve Scherf et al.
# Submitted via: EasyCDDAExtractor 15.2.5.1
#
DISCID=27110013
DTITLE=蔡國權 CD2 - 創作我的歌精選
DYEAR=2000
DGENRE=Alternative
TTITLE0=不裝飾你的夢
TTITLE1=不應再猶豫
TTITLE2=再見也許不再會
TTITLE3=順流逆流
TTITLE4=天地情
TTITLE5=衝破萬重浪
TTITLE6=人墙
TTITLE7=童年
TTITLE8=夢裹可是誰
TTITLE9=風中暖流
TTITLE10=嘆息橋
TTITLE11=擠息烟頭
TTITLE12=歌聲背后
TTITLE13=星夜
TTITLE14=堆夢
TTITLE15=火炬行動
TTITLE16=愛情傀儡
TTITLE17=夕陽细雨
TTITLE18=萝的預言
EXTD=
EXTT0=
EXTT1=
EXTT2=
EXTT3=
EXTT4=
EXTT5=
EXTT6=
EXTT7=
EXTT8=
EXTT9=
EXTT10=
EXTT11=
EXTT12=
EXTT13=
EXTT14=
EXTT15=
EXTT16=
EXTT17=
EXTT18=
PLAYORDER=
